<svg width="114" height="114" viewBox="0 0 114 114" fill="none" xmlns="http://www.w3.org/2000/svg">
<path fill-rule="evenodd" clip-rule="evenodd" d="M94.7534 0C86.9102 0 80.2777 5.39793 78.3613 12.645L76.2512 11.6646C75.8748 11.4895 75.4647 11.3989 75.0496 11.3989C74.6345 11.3989 74.2244 11.4895 73.8481 11.6646L38.9492 27.8766L4.05042 11.6657C3.61617 11.464 3.13811 11.375 2.66038 11.4069C2.18265 11.4387 1.72065 11.5904 1.31702 11.848C0.913389 12.1055 0.581147 12.4606 0.350965 12.8804C0.120783 13.3002 8.0407e-05 13.7713 7.6865e-08 14.2501V94.3778C-0.000126099 94.9211 0.15509 95.4532 0.447355 95.9113C0.739619 96.3694 1.15675 96.7344 1.64958 96.9633L37.7488 113.732C38.1252 113.907 38.5353 113.997 38.9504 113.997C39.3655 113.997 39.7755 113.907 40.1519 113.732L75.0508 97.5208L109.95 113.732C111.839 114.608 114 113.23 114 111.148V31.0207C114 30.4773 113.845 29.9452 113.553 29.4872C113.26 29.0291 112.843 28.6641 112.35 28.4352L108.668 26.7229L109.821 24.7598C110.083 24.2844 110.292 23.7783 110.471 23.2607C111.296 21.2487 111.72 19.0948 111.72 16.92C111.72 7.62095 104.08 0 94.7534 0ZM94.7534 7.92647C99.7751 7.92647 103.769 11.9119 103.769 16.92C103.769 21.9269 99.7751 25.9089 94.7534 25.9089C89.7317 25.9089 85.7383 21.9269 85.7383 16.92C85.7383 11.9119 89.7317 7.92647 94.7534 7.92647ZM76.3241 17.9836L77.8939 18.7144C78.2002 21.563 79.2304 24.2858 80.8864 26.6237L92.6831 47.0184C94.3361 49.1776 95.4351 48.7672 96.8088 46.9044L105.766 31.6591L108.3 32.8379V106.682L76.7471 92.0248L76.4894 46.7939C76.9546 46.8942 77.4185 46.9911 77.8848 47.1017L78.9336 42.6659C78.1129 42.4719 77.289 42.2921 76.4621 42.1267L76.3253 17.9836H76.3241ZM72.9064 18.3872L73.0375 41.5704C71.8602 41.4088 70.676 41.3019 69.4887 41.25L69.32 45.8055C70.5603 45.8511 71.8109 45.9856 73.0649 46.168L73.3271 92.035L40.6364 107.223L40.2158 33.5743L72.9064 18.3872ZM5.7 18.7166L36.7935 33.1605L37.2164 107.201L5.7 92.5583V18.7166ZM64.459 41.5612C62.8892 41.8428 61.283 42.3456 59.7873 43.2154C57.9982 44.2513 56.5268 45.7574 55.5328 47.5702L59.5251 49.7727C60.1199 48.6897 60.9968 47.788 62.0627 47.1632L62.0696 47.1587L62.0764 47.1541C62.9964 46.6183 64.0919 46.2581 65.265 46.0483L64.459 41.5612ZM83.4583 43.8766L82.1666 48.2474C85.0201 49.091 87.8461 50.06 90.6562 51.1088L92.2511 46.836C89.3646 45.7599 86.4371 44.7567 83.4583 43.8766ZM53.816 52.5361L53.7818 52.7162L53.7784 52.7322C53.2095 55.9595 53.2699 59.1356 53.3976 62.1543L57.953 61.9605C57.8288 59.0318 57.8026 56.1978 58.2688 53.5381L58.2962 53.3956L53.816 52.5361ZM58.2244 66.4556L53.6758 66.7634C53.881 69.806 54.0998 72.7883 54.0919 75.7124L58.6519 75.7238C58.661 72.566 58.4296 69.4789 58.2244 66.4556ZM53.865 80.0102C53.7396 81.0967 53.5526 82.1535 53.279 83.1681L53.2768 83.1738L53.2745 83.1829C52.8755 84.7048 52.204 86.1138 51.2669 87.2174L54.7405 90.17C56.2088 88.4429 57.1402 86.4102 57.6817 84.3537L57.684 84.3468C58.026 83.0746 58.2483 81.7932 58.3942 80.5278L53.865 80.0102ZM15.3695 84.454L13.322 88.5284C16.1492 89.95 19.0733 91.1253 22.018 92.1422L23.5057 87.8318C20.707 86.8662 17.9744 85.7627 15.3695 84.454ZM27.7225 89.1428L26.5096 93.5387C29.526 94.3721 32.6268 95.0344 35.796 95.3912L36.3044 90.8597C33.4305 90.5371 30.5645 89.9283 27.7225 89.1428ZM48.4033 89.4643C46.1324 90.6271 43.3907 91.0569 40.5715 91.0911L40.6285 95.6511C43.8592 95.6124 47.3134 95.145 50.4803 93.5228L48.4033 89.4643Z" fill="#24B9E9"/>
</svg>
