<svg width="96" height="96" viewBox="0 0 96 96" fill="none" xmlns="http://www.w3.org/2000/svg">
<path d="M61.5 54.75H68.25V61.5H61.5V54.75Z" fill="#24B9E9"/>
<path d="M88.5 48H95.25V54.75H88.5V48Z" fill="#24B9E9"/>
<path d="M41.25 14.25H48V21H41.25V14.25Z" fill="#24B9E9"/>
<path d="M48 68.25H34.5V48C34.4982 46.2103 33.7865 44.4945 32.521 43.229C31.2555 41.9635 29.5397 41.2518 27.75 41.25H7.5C5.71034 41.2518 3.99449 41.9635 2.729 43.229C1.46352 44.4945 0.751787 46.2103 0.75 48V68.25C0.751787 70.0397 1.46352 71.7555 2.729 73.021C3.99449 74.2865 5.71034 74.9982 7.5 75H27.75V88.5C27.7518 90.2897 28.4635 92.0055 29.729 93.271C30.9945 94.5365 32.7103 95.2482 34.5 95.25H48C49.7897 95.2482 51.5055 94.5365 52.771 93.271C54.0365 92.0055 54.7482 90.2897 54.75 88.5V75C54.7482 73.2103 54.0365 71.4945 52.771 70.229C51.5055 68.9635 49.7897 68.2518 48 68.25ZM7.5 68.25V48H27.75V68.25H7.5ZM34.5 88.5V75H48V88.5H34.5Z" fill="#24B9E9"/>
<path d="M88.5 95.25H75C73.2103 95.2482 71.4945 94.5365 70.229 93.271C68.9635 92.0055 68.2518 90.2897 68.25 88.5V75C68.2518 73.2103 68.9635 71.4945 70.229 70.229C71.4945 68.9635 73.2103 68.2518 75 68.25H88.5C90.2897 68.2518 92.0055 68.9635 93.271 70.229C94.5365 71.4945 95.2482 73.2103 95.25 75V88.5C95.2482 90.2897 94.5365 92.0055 93.271 93.271C92.0055 94.5365 90.2897 95.2482 88.5 95.25ZM75 75V88.5H88.5V75H75Z" fill="#24B9E9"/>
<path d="M88.5 0.75H68.25C66.4603 0.751787 64.7445 1.46352 63.479 2.729C62.2135 3.99449 61.5018 5.71034 61.5 7.5V27.75H54.75C52.9603 27.7518 51.2445 28.4635 49.979 29.729C48.7135 30.9945 48.0018 32.7103 48 34.5V41.25C48.0018 43.0397 48.7135 44.7555 49.979 46.021C51.2445 47.2865 52.9603 47.9982 54.75 48H61.5C63.2897 47.9982 65.0055 47.2865 66.271 46.021C67.5365 44.7555 68.2482 43.0397 68.25 41.25V34.5H88.5C90.2897 34.4982 92.0055 33.7865 93.271 32.521C94.5365 31.2555 95.2482 29.5397 95.25 27.75V7.5C95.2482 5.71034 94.5365 3.99449 93.271 2.729C92.0055 1.46352 90.2897 0.751787 88.5 0.75ZM54.75 41.25V34.5H61.5V41.25H54.75ZM68.25 27.75V7.5H88.5V27.75H68.25Z" fill="#24B9E9"/>
<path d="M21 27.75H7.5C5.71034 27.7482 3.99449 27.0365 2.729 25.771C1.46352 24.5055 0.751787 22.7897 0.75 21V7.5C0.751787 5.71034 1.46352 3.99449 2.729 2.729C3.99449 1.46352 5.71034 0.751787 7.5 0.75H21C22.7897 0.751787 24.5055 1.46352 25.771 2.729C27.0365 3.99449 27.7482 5.71034 27.75 7.5V21C27.7482 22.7897 27.0365 24.5055 25.771 25.771C24.5055 27.0365 22.7897 27.7482 21 27.75ZM7.5 7.5V21H21V7.5H7.5Z" fill="#24B9E9"/>
</svg>
