<svg width="132" height="132" viewBox="0 0 132 132" fill="none" xmlns="http://www.w3.org/2000/svg">
<path d="M115.243 58.6667H36.6665V66.0001H115.243C116.216 66.0001 117.148 65.6138 117.836 64.9261C118.524 64.2385 118.91 63.3059 118.91 62.3334C118.91 61.361 118.524 60.4283 117.836 59.7407C117.148 59.0531 116.216 58.6667 115.243 58.6667Z" fill="#24B9E9"/>
<path d="M115.243 88H36.6665V95.3333H115.243C116.216 95.3333 117.148 94.947 117.836 94.2594C118.524 93.5718 118.91 92.6391 118.91 91.6667C118.91 90.6942 118.524 89.7616 117.836 89.0739C117.148 88.3863 116.216 88 115.243 88Z" fill="#24B9E9"/>
<path d="M56.6499 36.6666H115.317C116.289 36.6666 117.222 36.2803 117.909 35.5926C118.597 34.905 118.983 33.9724 118.983 32.9999C118.983 32.0275 118.597 31.0948 117.909 30.4072C117.222 29.7196 116.289 29.3333 115.317 29.3333H63.9832L56.6499 36.6666Z" fill="#24B9E9"/>
<path d="M64.1667 12.54C63.795 12.1642 63.3524 11.8659 62.8647 11.6622C62.3769 11.4586 61.8536 11.3538 61.325 11.3538C60.7964 11.3538 60.2731 11.4586 59.7853 11.6622C59.2975 11.8659 58.855 12.1642 58.4833 12.54L28.93 42.0934L16.5367 28.7467C15.8073 27.9639 14.7969 27.5028 13.7276 27.465C12.6583 27.4272 11.6178 27.8157 10.835 28.545C10.0522 29.2744 9.59112 30.2848 9.55331 31.3541C9.51549 32.4234 9.90398 33.4639 10.6333 34.2467L28.7467 53.68L64.1667 18.3334C64.5548 17.9573 64.8633 17.5072 65.0741 17.0096C65.2848 16.512 65.3934 15.9771 65.3934 15.4367C65.3934 14.8963 65.2848 14.3615 65.0741 13.8639C64.8633 13.3662 64.5548 12.9161 64.1667 12.54Z" fill="#24B9E9"/>
</svg>
