<svg width="205" height="65" viewBox="0 0 205 65" fill="none" xmlns="http://www.w3.org/2000/svg">
<g clip-path="url(#clip0)">
<path d="M35.9678 31.4033L35.9666 31.4048L25.9857 43.1762L16.0452 31.4529C15.897 31.2636 15.7502 31.0731 15.6048 30.8815L15.6044 30.8809C13.9061 28.6438 12.9887 25.9114 12.9928 23.1028V23.0985C12.9928 19.6526 14.3617 16.3478 16.7984 13.9111C19.235 11.4745 22.5398 10.1056 25.9858 10.1056C29.4317 10.1056 32.7365 11.4745 35.1732 13.9111C37.6098 16.3478 38.9787 19.6526 38.9787 23.0985L38.9787 23.1028C38.9828 25.9098 38.0659 28.6407 36.3686 30.8766L36.1172 31.2077C36.0737 31.2643 36.0393 31.3089 36.0139 31.3417C35.9667 31.4028 35.9512 31.4229 35.9678 31.4033Z" stroke="#24B9E9" stroke-width="5.77465"/>
<path d="M23.0992 27.4295C21.6715 27.4295 20.2759 27.0062 19.0889 26.213C17.9018 25.4199 16.9767 24.2925 16.4303 22.9736C15.884 21.6546 15.741 20.2032 16.0196 18.803C16.2981 17.4028 16.9856 16.1166 17.9951 15.1071C19.0046 14.0976 20.2907 13.4101 21.691 13.1316C23.0912 12.8531 24.5425 12.996 25.8615 13.5424C27.1805 14.0887 28.3078 15.0139 29.101 16.201C29.8941 17.388 30.3175 18.7836 30.3175 20.2112C30.3152 22.1249 29.554 23.9596 28.2008 25.3128C26.8476 26.666 25.0129 27.4273 23.0992 27.4295Z" fill="#15D891"/>
<path d="M23.099 44.7535L10.9203 30.3905C10.7511 30.1748 10.5836 29.9578 10.4179 29.7394C8.33758 26.999 7.21372 23.6518 7.21877 20.2112C7.21877 15.9995 8.89186 11.9603 11.87 8.98216C14.8481 6.00403 18.8873 4.33093 23.099 4.33093C27.3108 4.33093 31.35 6.00403 34.3281 8.98216C37.3062 11.9603 38.9793 15.9995 38.9793 20.2112C38.9844 23.6502 37.861 26.9959 35.7816 29.7351L35.7802 29.7394C35.7802 29.7394 35.3471 30.3082 35.2821 30.3847L23.099 44.7535Z" fill="#EAEAEA"/>
<circle cx="23.0992" cy="18.7675" r="7.21831" fill="#3DC4EF"/>
</g>
<path d="M53.3006 13.5448H61.6267V36H67.3102V13.5448H75.6363V8.8041H53.3006V13.5448ZM79.3146 36H85.0645V26.3593H89.2608L94.4131 36H100.761L94.9841 25.4297C98.0782 24.1018 99.7912 21.4061 99.7912 17.6879C99.7912 12.2833 96.2191 8.8041 90.0443 8.8041H79.3146V36ZM85.0645 21.7381V13.505H88.9421C92.2619 13.505 93.8687 14.979 93.8687 17.6879C93.8687 20.3836 92.2619 21.7381 88.9686 21.7381H85.0645ZM109.605 8.8041H103.855V36H109.605V8.8041ZM114.335 36H120.085V27.1826H124.919C131.173 27.1826 134.812 23.4511 134.812 18.0199C134.812 12.6152 131.24 8.8041 125.065 8.8041H114.335V36ZM120.085 22.5747V13.505H123.963C127.283 13.505 128.889 15.3109 128.889 18.0199C128.889 20.7156 127.283 22.5747 123.989 22.5747H120.085Z" fill="#24B9E9"/>
<path d="M79.3874 38.8123V57.7112H83.8352V46.0378H83.9921L88.5323 57.5912H91.3745L95.9146 46.1024H96.0715V57.7112H100.519V38.8123H94.8626L90.0641 50.5134H89.8426L85.0441 38.8123H79.3874ZM106.677 57.7112L107.923 53.7432H114.447L115.693 57.7112H120.602L114.225 38.8123H108.144L101.768 57.7112H106.677ZM109.012 50.2735L111.106 43.574H111.254L113.358 50.2735H109.012ZM118.879 42.522H124.619V57.7112H129.122V42.522H134.852V38.8123H118.879V42.522ZM152.596 45.6595C152.134 41.1378 148.766 38.554 144.198 38.554C139.16 38.554 135.238 42.0144 135.238 48.2618C135.238 54.4814 139.067 57.9696 144.198 57.9696C149.384 57.9696 152.254 54.4445 152.596 51.0947L147.982 51.0671C147.659 52.885 146.293 53.9646 144.29 53.9646C141.596 53.9646 139.898 52.0175 139.898 48.2618C139.898 44.6536 141.559 42.5589 144.318 42.5589C146.394 42.5589 147.751 43.7677 147.982 45.6595H152.596ZM154.43 57.7112H158.998V50.1166H166.445V57.7112H171.003V38.8123H166.445V46.3977H158.998V38.8123H154.43V57.7112ZM173.089 57.7112H186.266V54.0015H177.657V50.1166H185.593V46.3977H177.657V42.522H186.266V38.8123H173.089V57.7112ZM188.348 57.7112H192.915V51.2424H195.259L198.711 57.7112H203.694L199.772 50.5134C201.848 49.5721 203.048 47.7173 203.048 45.1058C203.048 41.2208 200.399 38.8123 196.154 38.8123H188.348V57.7112ZM192.915 47.6435V42.4943H195.167C197.216 42.4943 198.314 43.3525 198.314 45.1058C198.314 46.8591 197.216 47.6435 195.167 47.6435H192.915Z" fill="#EAEAEA"/>
<defs>
<clipPath id="clip0">
<rect width="46.1972" height="46.1972" fill="white" transform="translate(0 1.4436)"/>
</clipPath>
</defs>
</svg>
