<svg width="205" height="65" viewBox="0 0 205 65" fill="none" xmlns="http://www.w3.org/2000/svg">
<g clip-path="url(#clip0)">
<path d="M35.9681 31.4033L35.9668 31.4048L25.986 43.1763L16.0455 31.453C15.8972 31.2636 15.7504 31.0731 15.605 30.8815L15.6046 30.8809C13.9064 28.6439 12.9889 25.9114 12.9931 23.1028V23.0986C12.9931 19.6526 14.362 16.3478 16.7986 13.9112C19.2353 11.4745 22.5401 10.1056 25.986 10.1056C29.432 10.1056 32.7368 11.4745 35.1734 13.9112C37.6101 16.3478 38.979 19.6526 38.979 23.0986L38.979 23.1028C38.9831 25.9099 38.0662 28.6408 36.3689 30.8766L36.1175 31.2078C36.074 31.2643 36.0395 31.3089 36.0142 31.3417C35.967 31.4028 35.9515 31.4229 35.9681 31.4033Z" stroke="#24B9E9" stroke-width="5.77465"/>
<path d="M23.0987 27.4296C21.671 27.4296 20.2755 27.0062 19.0884 26.2131C17.9014 25.4199 16.9762 24.2926 16.4298 22.9736C15.8835 21.6546 15.7406 20.2033 16.0191 18.803C16.2976 17.4028 16.9851 16.1166 17.9946 15.1071C19.0041 14.0976 20.2902 13.4102 21.6905 13.1317C23.0907 12.8531 24.542 12.9961 25.861 13.5424C27.18 14.0888 28.3073 15.0139 29.1005 16.201C29.8936 17.388 30.317 18.7836 30.317 20.2113C30.3147 22.125 29.5535 23.9597 28.2003 25.3128C26.8471 26.666 25.0124 27.4273 23.0987 27.4296Z" fill="#15D891"/>
<path d="M23.0986 44.7535L10.9198 30.3905C10.7506 30.1748 10.5831 29.9578 10.4174 29.7394C8.33709 26.999 7.21324 23.6518 7.21828 20.2112C7.21828 15.9995 8.89138 11.9603 11.8695 8.98219C14.8476 6.00406 18.8868 4.33096 23.0986 4.33096C27.3103 4.33096 31.3495 6.00406 34.3276 8.98219C37.3057 11.9603 38.9788 15.9995 38.9788 20.2112C38.9839 23.6503 37.8605 26.9959 35.7811 29.7351L35.7797 29.7394C35.7797 29.7394 35.3466 30.3082 35.2816 30.3847L23.0986 44.7535Z" fill="#303030"/>
<circle cx="23.0987" cy="18.7676" r="7.21831" fill="#3DC4EF"/>
</g>
<path d="M53.2998 13.5448H61.6259V36H67.3095V13.5448H75.6355V8.8041H53.2998V13.5448ZM79.3139 36H85.0638V26.3593H89.2601L94.4124 36H100.76L94.9834 25.4297C98.0775 24.1018 99.7905 21.4061 99.7905 17.6879C99.7905 12.2833 96.2184 8.8041 90.0435 8.8041H79.3139V36ZM85.0638 21.7381V13.505H88.9414C92.2612 13.505 93.868 14.979 93.868 17.6879C93.868 20.3836 92.2612 21.7381 88.9679 21.7381H85.0638ZM109.604 8.8041H103.854V36H109.604V8.8041ZM114.335 36H120.085V27.1826H124.918C131.173 27.1826 134.811 23.4511 134.811 18.0199C134.811 12.6152 131.239 8.8041 125.064 8.8041H114.335V36ZM120.085 22.5747V13.505H123.962C127.282 13.505 128.889 15.3109 128.889 18.0199C128.889 20.7156 127.282 22.5747 123.989 22.5747H120.085Z" fill="#24B9E9"/>
<path d="M79.3881 38.8124V57.7112H83.836V46.0379H83.9928L88.533 57.5913H91.3752L95.9154 46.1025H96.0722V57.7112H100.52V38.8124H94.8634L90.0648 50.5134H89.8434L85.0448 38.8124H79.3881ZM106.678 57.7112L107.923 53.7432H114.448L115.693 57.7112H120.603L114.226 38.8124H108.145L101.768 57.7112H106.678ZM109.012 50.2735L111.107 43.574H111.255L113.359 50.2735H109.012ZM118.879 42.522H124.619V57.7112H129.123V42.522H134.853V38.8124H118.879V42.522ZM152.596 45.6595C152.135 41.1378 148.767 38.554 144.199 38.554C139.16 38.554 135.239 42.0145 135.239 48.2618C135.239 54.4815 139.068 57.9696 144.199 57.9696C149.385 57.9696 152.255 54.4445 152.596 51.0948L147.982 51.0671C147.659 52.885 146.294 53.9647 144.291 53.9647C141.597 53.9647 139.899 52.0176 139.899 48.2618C139.899 44.6537 141.56 42.5589 144.319 42.5589C146.395 42.5589 147.752 43.7678 147.982 45.6595H152.596ZM154.431 57.7112H158.998V50.1166H166.445V57.7112H171.004V38.8124H166.445V46.3978H158.998V38.8124H154.431V57.7112ZM173.09 57.7112H186.267V54.0016H177.657V50.1166H185.594V46.3978H177.657V42.522H186.267V38.8124H173.09V57.7112ZM188.348 57.7112H192.916V51.2424H195.26L198.711 57.7112H203.694L199.772 50.5134C201.849 49.5722 203.048 47.7174 203.048 45.1059C203.048 41.2209 200.4 38.8124 196.155 38.8124H188.348V57.7112ZM192.916 47.6435V42.4943H195.168C197.216 42.4943 198.314 43.3525 198.314 45.1059C198.314 46.8592 197.216 47.6435 195.168 47.6435H192.916Z" fill="#303030"/>
<defs>
<clipPath id="clip0">
<rect width="46.1972" height="46.1972" fill="white" transform="translate(0 1.44363)"/>
</clipPath>
</defs>
</svg>
