<svg width="34" height="33" viewBox="0 0 34 33" fill="none" xmlns="http://www.w3.org/2000/svg">
<path d="M16.9998 6.01129L15.4762 4.39911C11.8998 0.614733 5.34203 1.92067 2.97478 6.67848C1.8634 8.9163 1.61265 12.1472 3.64203 16.2707C5.59703 20.241 9.66428 24.9966 16.9998 30.1766C24.3353 24.9966 28.4004 20.241 30.3575 16.2707C32.3869 12.145 32.1383 8.9163 31.0248 6.67848C28.6575 1.92067 22.0998 0.612545 18.5234 4.39692L16.9998 6.01129ZM16.9998 32.8125C-15.5828 10.6488 6.96765 -6.64995 16.6258 2.50036C16.7533 2.62067 16.8787 2.74536 16.9998 2.87442C17.1197 2.74547 17.2444 2.62142 17.3738 2.50254C27.0298 -6.65433 49.5824 10.6466 16.9998 32.8125Z" fill="white"/>
</svg>
